<?xml version="1.0" encoding="UTF-8"?>
<svg width="255px" height="70px" viewBox="0 0 255 70" version="1.1" xmlns="http://www.w3.org/2000/svg" xmlns:xlink="http://www.w3.org/1999/xlink">
    <title>SiteSafe Workshop header 2</title>
    <defs>
        <path d="M0.400891014,45.3146455 C2.17272921,49.376384 6.27410383,58.788651 10.2114747,59.9202924 C11.5486708,60.305264 12.9758664,59.8786566 14.3132758,59.6062086 C23.6359002,51.4428039 28.9552536,13.5731724 46.1984724,2.16665434 C44.1455458,0.87209931 37.6399906,0.370333793 34.9263568,0.339373793 C31.9907101,0.44954869 28.9249694,1.2756469 26.6078026,2.50849545 C21.768944,5.08265931 18.0510269,9.37093959 15.1693373,14.0426968 C11.5589077,19.8947774 9.3142523,25.3287912 6.60659008,31.6341688 C6.01583517,33.0087928 1.34759176,44.4229975 0.400891014,45.3146455" id="path-1"></path>
        <linearGradient x1="46.4761786%" y1="15.2467214%" x2="27.0963241%" y2="108.682262%" id="linearGradient-3">
            <stop stop-color="#48A146" offset="0%"></stop>
            <stop stop-color="#A5CD38" offset="100%"></stop>
        </linearGradient>
        <path d="M18.1456186,32.2751744 C19.9959056,34.7261999 22.6175202,36.9025675 25.4472198,37.9828885 C27.8836558,38.9128479 30.3074611,39.0496383 33.1249581,38.7551619 C38.7265559,38.1696559 42.041145,34.9442028 44.3332916,32.138384 C43.3172714,32.3070562 42.0477814,32.7990708 40.2159053,32.4552638 C36.2635741,31.3135486 32.1466159,21.8174942 30.3680455,17.7195985 C26.8798381,11.6553676 25.1432272,6.40455486 18.8606434,2.44517282 C14.8948252,-0.0541063158 10.1039455,-0.0737093498 5.66736709,1.21470545 C4.03672541,1.6879787 1.08628513,2.6705 0.0437191608,3.60713728 C2.7252759,6.47176526 3.0626648,6.39529189 5.56525128,10.0621363 C10.3246613,17.0337077 12.9644725,25.4128199 18.1456186,32.2751744 Z" id="path-4"></path>
        <linearGradient x1="60.7814041%" y1="70.1112613%" x2="17.3271012%" y2="8.97823537%" id="linearGradient-6">
            <stop stop-color="#48A146" offset="0%"></stop>
            <stop stop-color="#A5CD38" offset="100%"></stop>
        </linearGradient>
    </defs>
    <g id="Page-1" stroke="none" stroke-width="1" fill="none" fill-rule="evenodd">
        <g id="SiteSafe-Workshop-Header">
            <g id="Logo">
                <path d="M17.3793248,4.9 L66.6202367,5.09909896 C69.6345121,5.11125961 72.1,7.57795127 72.1,10.582485 L72.1,59.6607312 C72.1,62.6639849 69.6345121,65.1121155 66.6202367,65.1 L17.3793248,64.9004776 C14.3654879,64.888957 11.9,62.4216253 11.9,59.4170916 L11.9,10.339272 C11.9,7.33495163 14.3654879,4.887461 17.3793248,4.9" id="Fill-4" fill="#005945"></path>
                <path d="M33.04098,42.7443494 C33.5561302,41.6252903 34.0506146,40.4947142 34.5397729,39.3647779 C35.5295941,37.0776061 36.4670054,34.7688934 37.4493699,32.481295 C40.0988352,26.3129265 42.6147194,20.3597535 46.1440731,14.6394779 C49.2162257,9.66012316 53.1778538,5.14165782 58.337025,2.39700897 C61.0638267,0.946092338 64.4174158,0.117088524 67.4948946,0.00106638 L67.5426173,0 L67.5909792,0 C70.6516273,0.0349772641 77.3539053,0.536815693 79.8829985,2.13169362 L82.6,3.84493973 L79.9294429,5.61150485 C72.3430156,10.6292493 67.2121798,21.4231477 63.7627192,29.6935644 C61.0763965,36.1334333 58.8004044,42.7328325 56.1762918,49.1918962 C54.3349177,53.7231581 52.1439317,59.3436205 48.4183608,62.7086893 C45.0884201,66.7242498 41.3049001,69.3063824 36.0404833,69.8534353 C33.0812461,70.1605527 30.3118347,70.0383456 27.4993877,68.9706859 C24.3239068,67.76525 21.4136707,65.3801845 19.3428438,62.6506782 C16.8559341,59.3739057 14.9252929,55.7520527 13.076036,52.0745346 C11.3350075,48.612212 9.6585325,45.0803615 7.57982286,41.8125466 C7.31457806,41.3960186 7.04358096,40.9843959 6.76512718,40.5787449 C5.95639686,39.400395 5.13403146,38.2371877 4.15805843,37.1974672 C3.2792353,36.2616121 2.35119807,35.3716114 1.46811398,34.4334103 L0,32.8735096 L1.58784698,31.455864 C2.99119436,30.2020144 6.11831336,29.1906596 7.95414825,28.6604555 C12.8670358,27.2408904 18.2087891,27.303167 22.6764063,30.1047606 C28.1992505,33.5675097 30.3384657,37.7349227 33.04098,42.7443494" id="Fill-5" fill="#FEFEFE"></path>
                <g id="Group-8" transform="translate(32.900000, 1.400000)">
                    <mask id="mask-2" fill="white">
                        <use xlink:href="#path-1"></use>
                    </mask>
                    <g id="Clip-7"></g>
                    <path d="M0.400891014,45.3146455 C2.17272921,49.376384 6.27410383,58.788651 10.2114747,59.9202924 C11.5486708,60.305264 12.9758664,59.8786566 14.3132758,59.6062086 C23.6359002,51.4428039 28.9552536,13.5731724 46.1984724,2.16665434 C44.1455458,0.87209931 37.6399906,0.370333793 34.9263568,0.339373793 C31.9907101,0.44954869 28.9249694,1.2756469 26.6078026,2.50849545 C21.768944,5.08265931 18.0510269,9.37093959 15.1693373,14.0426968 C11.5589077,19.8947774 9.3142523,25.3287912 6.60659008,31.6341688 C6.01583517,33.0087928 1.34759176,44.4229975 0.400891014,45.3146455" id="Fill-6" fill="url(#linearGradient-3)" mask="url(#mask-2)"></path>
                </g>
                <g id="Group-11" transform="translate(2.800000, 29.400000)">
                    <mask id="mask-5" fill="white">
                        <use xlink:href="#path-4"></use>
                    </mask>
                    <g id="Clip-10"></g>
                    <path d="M18.1456186,32.2751744 C19.9959056,34.7261999 22.6175202,36.9025675 25.4472198,37.9828885 C27.8836558,38.9128479 30.3074611,39.0496383 33.1249581,38.7551619 C38.7265559,38.1696559 42.041145,34.9442028 44.3332916,32.138384 C43.3172714,32.3070562 42.0477814,32.7990708 40.2159053,32.4552638 C36.2635741,31.3135486 32.1466159,21.8174942 30.3680455,17.7195985 C26.8798381,11.6553676 25.1432272,6.40455486 18.8606434,2.44517282 C14.8948252,-0.0541063158 10.1039455,-0.0737093498 5.66736709,1.21470545 C4.03672541,1.6879787 1.08628513,2.6705 0.0437191608,3.60713728 C2.7252759,6.47176526 3.0626648,6.39529189 5.56525128,10.0621363 C10.3246613,17.0337077 12.9644725,25.4128199 18.1456186,32.2751744 Z" id="Fill-9" fill="url(#linearGradient-6)" mask="url(#mask-5)"></path>
                </g>
                <path d="M5.6,7.39481969 C6.21788665,7.82898984 6.84120394,7.97320183 7.35550607,8.68330345 C8.04982401,9.64128312 7.94040658,9.97682805 8.34911285,11.2 C8.83827311,9.3070532 9.36182745,7.87567244 11.2,7.47437737 C9.72085339,7.20896593 8.51283672,5.56959554 8.31733352,3.5 C8.10292364,5.60751146 7.07431937,7.13685993 5.6,7.39481969" id="Fill-15" fill="#A5CD38"></path>
                <path d="M15.4,5.29503447 C16.3269483,5.72907532 17.2624735,5.87342423 18.0337511,6.58304026 C19.0749866,7.54158856 18.910739,7.87701087 19.5239872,9.1 C20.2583842,7.20696155 21.042956,5.77579983 23.8,5.37456555 C21.5815852,5.10913058 19.7701442,3.46959744 19.4765999,1.4 C19.1551806,3.5073747 17.6119821,5.03695613 15.4,5.29503447" id="Fill-16" fill="#A5CD38"></path>
                <path d="M12.6,15.6448032 C15.23716,16.1530003 15.8777134,16.4705219 16.5440792,19.6 C16.805146,16.426817 17.8783956,15.9657805 20.3,15.6984688 C18.3513953,15.5216162 16.7365395,15.1953536 16.50287,11.9 C16.3328256,14.8146123 14.5427177,15.472626 12.6,15.6448032" id="Fill-17" fill="#A5CD38"></path>
                <path d="M21.7,12.995258 C22.3180878,13.4296473 22.9418073,13.5736402 23.4555061,14.2830843 C24.149824,15.2417215 24.0404066,15.5766089 24.4491129,16.8 C24.9384742,14.906834 25.4618275,13.4761108 27.3,13.0741582 C25.8210545,12.8089659 24.6134401,11.1700339 24.4179369,9.1 C24.203527,11.2072923 23.1743194,12.7368599 21.7,12.995258" id="Fill-18" fill="#A5CD38"></path>
            </g>
            <g id="Text" transform="translate(90.300000, 4.900000)">
                <path d="M20.8315777,12.9788243 L20.8315777,4.22848224 C18.7001058,3.30382968 15.542326,2.41536933 11.9337711,2.40003099 C5.41342082,2.37392342 0.532573741,5.56234025 0.532573741,12.2275441 C0.532573741,23.3537295 14.1894122,19.4087788 14.1894122,24.9508567 C14.1894122,26.86846 12.7529343,27.986916 9.92411443,27.9752411 C8.85778999,27.9705711 7.66847338,27.7983662 7.25830333,27.7143069 C6.76633466,27.6279126 6.64451945,27.5041586 6.5609554,27.0453348 L5.70001022,22.9153368 L0,22.891987 L0,31.7678343 C1.76367238,32.6084275 6.19256737,33.5850334 9.88409784,33.5998148 C16.4026827,33.6264793 21.776087,30.7754673 21.776087,23.7325802 C21.776087,12.5240867 8.11924851,16.1345514 8.11924851,10.8440677 C8.11924851,9.21775332 9.35034714,8.09754609 11.7289804,8.10746976 C12.5893371,8.11097223 13.286685,8.19678279 14.1058481,8.36723642 C14.4760016,8.45304698 14.5995822,8.57738473 14.6813809,9.16171377 L15.0915509,12.4540373 L20.8315777,12.9788243 Z M33.873913,4.37594396 C33.873913,1.56906181 32.2504362,0.0118350515 29.4177201,4.76129397e-05 C26.6268463,-0.00988277362 25.0021739,1.53384371 25.0021739,4.34072586 C25.0021739,7.14760801 26.6268463,8.78818426 29.4177201,8.79998664 C32.2504362,8.81166299 33.873913,7.18282611 33.873913,4.37594396 Z M36.2934783,33.5998148 L36.2934783,29.7409529 L34.5094616,29.4476564 C33.8866039,29.3625429 33.8461122,29.2797297 33.8461122,28.6241258 L33.8461122,12.0402209 L23.9292183,11.9999645 L23.3891304,15.9790205 L25.5465044,16.7680456 C25.9615444,16.8934155 26.0865923,17.180386 26.0865923,17.6318326 L26.0865923,28.5919207 C26.0865923,29.2078433 26.0020361,29.3314879 25.4214565,29.4102754 L23.6797179,29.6495134 L23.6797179,33.5492068 L36.2934783,33.5998148 Z M52.8073677,27.5456456 C51.9470672,27.830951 50.8403784,28.0725403 49.7748524,28.069089 C47.6032256,28.0593104 47.1116253,27.1953411 47.1116253,24.8553763 L47.1116253,16.4382906 L53.0937425,16.4630247 L53.0937425,11.5760186 L47.4397509,11.5535853 C47.1116253,11.5518597 47.1116253,11.4293394 47.1116253,11.1423083 L47.1116253,4.81784595 L42.3573328,4.80001436 C41.6205204,9.43565258 39.8987432,11.3171729 36.2934783,11.9999503 L36.2934783,16.3945744 L39.1201801,16.4060787 C39.4488937,16.4078043 39.4488937,16.5705895 39.4488937,16.8167805 L39.4488937,26.3014608 C39.4488937,31.5157628 41.3741322,33.5767495 46.7829117,33.5998148 C49.2832521,33.607811 52.1922793,32.758222 54.0369565,31.7803606 L52.8073677,27.5456456 Z M72.4692032,26.6395545 C69.2940046,27.6496502 67.3566956,27.9267967 66.1590434,27.9222158 C63.6027896,27.9124813 62.4069125,26.6412723 62.2424128,23.573765 L74.0355003,23.6207195 C74.1177502,22.6827735 74.1597627,21.8645043 74.1597627,21.4150002 C74.1597627,14.0975321 70.4076318,11.2229965 64.7584293,11.19997 C58.8204648,11.1760419 54.0369565,14.7125223 54.0369565,22.1926136 C54.0369565,28.6494389 56.8813806,33.5659254 65.1288494,33.5998148 C68.304048,33.6111622 71.3135634,32.6846684 74.2,31.3876917 L72.4692032,26.6395545 Z M62.8397784,19.6648149 C62.9967275,16.907954 63.9022901,16.3109981 65.0031923,16.3171581 C66.1447432,16.320518 67.0102216,16.8043547 67.0102216,19.6827347 L62.8397784,19.6648149 Z" id="Fill-12" fill="#005945"></path>
                <path d="M96.9885229,11.6562961 L96.9885229,2.69512988 C94.8711038,1.74555482 91.7350092,0.837239625 88.1500661,0.819733626 C81.6756613,0.792989906 76.828332,4.05909759 76.828332,10.8885036 C76.828332,22.2846003 90.3913861,18.2453185 90.3913861,23.92184 C90.3913861,25.8843748 88.9653572,27.0306817 86.155379,27.0187224 C85.0969617,27.0151345 83.9158124,26.8387336 83.5078746,26.7526261 C83.0192844,26.6641266 82.8965524,26.5355633 82.8153155,26.0661575 L81.9608671,21.8367214 L76.3,21.8116067 L76.3,30.9037281 C78.0509764,31.7648038 82.4494573,32.7664022 86.1138839,32.7803647 C92.590042,32.808858 97.9259615,29.8865826 97.9259615,22.6726823 C97.9259615,11.192272 84.3629075,14.8889175 84.3629075,9.47012073 C84.3629075,7.80358061 85.5855519,6.65787166 87.9478505,6.66624323 C88.8028834,6.66983104 89.4954425,6.75952642 90.3101492,6.93233951 C90.6765918,7.02083895 90.7975705,7.14940233 90.8805607,7.74617557 L91.2861607,11.1211136 L96.9885229,11.6562961 Z M121.153846,32.3273511 L121.153846,28.2478111 L119.301166,27.8909273 C118.696705,27.8033783 118.657409,27.7152213 118.657409,27.0209091 L118.657409,17.0409314 C118.657409,10.8778468 115.877234,9.04235772 109.515365,9.01476723 C105.488705,8.99736726 100.292996,9.97499773 100.292996,16.1356504 L107.300356,16.7302541 C107.300356,14.5609845 107.863788,14.1299272 109.43504,14.1347911 C111.327016,14.1439108 111.327016,15.4036436 111.327016,16.7922679 L111.327016,19.3086936 L107.179579,19.5500614 C102.065351,19.8327717 99.5278846,21.6871081 99.5278846,26.0262552 C99.5278846,29.0217685 100.453069,32.7565844 105.56903,32.7803647 C108.830579,32.7924552 110.683259,31.1965099 111.972506,29.7695829 L112.2522,29.8577398 L112.696589,32.2896564 L121.153846,32.3273511 Z M111.532256,26.431481 C110.947474,26.7991922 110.125527,26.9586675 109.383196,26.9552256 C108.405943,26.9517837 107.547552,26.456148 107.547552,25.1878027 C107.547552,23.7944011 108.250075,23.1846087 109.930413,23.1094602 L111.532256,23.0348854 L111.532256,26.431481 Z M138.021526,32.7803647 L138.021526,28.7647162 L133.026127,28.2302938 C132.42622,28.1848111 132.30578,28.0555443 132.30578,27.3739014 L132.30578,15.4125354 L138.780873,15.439466 L138.780873,10.3567681 L132.625807,10.3298375 C132.30578,10.3280422 132.30578,10.2011692 132.30578,9.90253904 L132.30578,7.33934643 C132.30578,5.9718715 132.3465,4.90302676 133.7459,4.90960979 C134.785127,4.91499591 135.105154,5.51345321 135.064433,7.60685684 L141.978846,6.78278114 C141.938126,1.05913553 138.101246,0.0154259984 134.1055,0.000230266337 C128.26874,-0.0264660125 124.833901,2.26502699 124.833901,8.50095204 L124.833901,10.2957255 L121.954808,10.2843548 L121.954808,15.3682496 L124.513301,15.3784233 C124.833901,15.3802187 124.833901,15.5495821 124.833901,15.8057218 L124.833901,27.5109482 C124.833901,28.1524944 124.752461,28.3218578 124.193274,28.4050434 L122.115395,28.6528047 L122.115395,32.7121405 L138.021526,32.7803647 Z M157.881287,26.2170385 C154.728256,27.2881125 152.802709,27.5821566 151.615181,27.5772964 C149.076774,27.5669684 147.889246,26.2170385 147.725894,22.9637196 L159.437236,23.013537 C159.518324,22.0165816 159.560044,21.150245 159.560044,20.6733345 C159.560044,12.9097188 155.832345,9.85809966 150.222583,9.83427059 C144.326661,9.80828226 139.575962,13.5609901 139.575962,21.4965366 C139.575962,28.3488585 142.402878,33.5651042 150.591004,33.599868 C153.744035,33.613099 156.733715,32.6301168 159.6,31.2522405 L157.881287,26.2170385 Z M148.318096,18.5075416 C148.473963,15.6811564 149.373283,15.071364 150.467156,15.0765269 C151.600276,15.0811161 152.459788,15.5756044 152.459788,18.5236038 L148.318096,18.5075416 Z" id="Fill-13" fill="#6BBD44"></path>
                <path d="M0.7,42.7000814 L2.73740762,42.7100371 L7.4764074,57.137603 L12.0256402,42.7000814 L13.5662033,42.7065233 L18.1142859,57.1821109 L22.8527107,42.7943677 L24.8188119,42.8025665 L18.896356,60.1998592 L17.3086387,60.1934173 L12.7611311,46.137726 L8.18717111,60.1553513 L6.62360596,60.1489094 L0.7,42.7000814 Z M38.5091322,58.6089703 C39.4459091,58.6124419 40.3071762,58.4310623 41.0940688,58.0630201 C41.8809614,57.6955649 42.557144,57.1895803 43.1169391,56.5474142 C43.6801408,55.9064221 44.1195743,55.15625 44.4397817,54.2992459 C44.7582858,53.4404808 44.9178218,52.5171469 44.9178218,51.5274832 L44.9178218,51.4775892 C44.9178218,50.4855775 44.7582858,49.5569607 44.4397817,48.6888038 C44.1195743,47.8200599 43.6721924,47.062844 43.0942294,46.415982 C42.5185374,45.7702939 41.8344064,45.2543305 41.0475138,44.8716136 C40.2606212,44.4888967 39.3993542,44.2957773 38.4625773,44.2909703 C37.5275036,44.2857984 36.6668043,44.4689391 35.8782085,44.8369812 C35.0913159,45.2061974 34.4168365,45.710421 33.8553381,46.3525871 C33.2932719,46.9929923 32.8527029,47.7437514 32.533631,48.6007555 C32.2134236,49.4571726 32.0544554,50.3810935 32.0544554,51.3725181 L32.0544554,51.4224122 C32.0544554,52.4126628 32.2134236,53.3424536 32.533631,54.2111975 C32.8527029,55.0799414 33.3017881,55.8365704 33.8774801,56.4840194 C34.4554431,57.1297074 35.1378708,57.6456708 35.9247634,58.0283877 C36.7133593,58.4111046 37.5746263,58.605398 38.5091322,58.6089703 Z M38.0541192,60.1998592 C36.7940508,60.1951298 35.6481168,59.9562731 34.6157439,59.4854333 C33.5850917,59.0145935 32.6989716,58.3782151 31.9573837,57.5762981 C31.21809,56.7755267 30.6456966,55.8470214 30.2453653,54.7896366 C29.8421664,53.7328246 29.6425743,52.623888 29.6425743,51.4645452 L29.6425743,51.4158573 C29.6425743,50.2565145 29.8473282,49.1441411 30.2568361,48.0821739 C30.6669176,47.0207795 31.2404581,46.0917014 31.982046,45.2978036 C32.7219132,44.5039058 33.6126216,43.8703914 34.6513034,43.3978332 C35.6922795,42.9269934 36.8416546,42.6950102 38.1011496,42.7000814 C39.3629387,42.7064662 40.5077255,42.9436045 41.5400984,43.4161627 C42.5724713,43.8870025 43.4585914,44.5233809 44.1978851,45.3235795 C44.9394729,46.1260693 45.5101457,47.0545746 45.9116241,48.110241 C46.3131024,49.1687714 46.5149887,50.277708 46.5149887,51.4370509 C46.5293272,51.4530892 46.5293272,51.4691275 46.5149887,51.4857387 C46.5149887,52.6467999 46.3102347,53.7568821 45.9001533,54.8188493 C45.4906454,55.8808165 44.9148107,56.8098946 44.175517,57.6037924 C43.4339291,58.3994086 42.5449413,59.0306318 41.5039653,59.5014717 C40.4652835,59.9723115 39.3141877,60.2065858 38.0541192,60.1998592 Z M59.8158047,51.4499703 C60.4527436,51.4517278 61.0382306,51.3707413 61.5746314,51.2051953 C62.1139891,51.0396493 62.5770561,50.8032401 62.9673808,50.4947767 C63.3612538,50.1857178 63.6652339,49.8111551 63.8846437,49.3687066 C64.1040535,48.9244717 64.2128713,48.4183059 64.2128713,47.8496137 L64.2128713,47.7989971 C64.2128713,46.7098474 63.8326004,45.8577023 63.0649619,45.2431575 C62.3002804,44.6286126 61.2239306,44.3183628 59.8394608,44.3130034 L54.5653465,44.2909703 L54.5653465,51.4261218 L59.8158047,51.4499703 Z M52.9574257,42.7000814 L60.0626482,42.7301933 C61.0852915,42.7349168 61.9950716,42.8925618 62.789124,43.2037188 C63.5831765,43.513695 64.2408764,43.9435286 64.7587865,44.4944005 C65.1701355,44.9277767 65.4835169,45.436728 65.7040871,46.0188928 C65.9252301,46.6016479 66.0340829,47.240494 66.0340829,47.9383832 L66.0340829,47.987389 C66.0340829,48.7201136 65.9252301,49.3713587 65.7040871,49.9434861 C65.4835169,50.5144327 65.173,51.0133467 64.7719635,51.433143 C64.3709269,51.8547106 63.8936933,52.2030647 63.3442732,52.4740725 C62.7925615,52.7456706 62.195017,52.9393319 61.549921,53.0515138 L66.6247525,60.1998592 L64.3354065,60.1915931 L59.5441652,53.3916019 L59.4971866,53.3916019 L54.8233917,53.3715272 L54.8233917,60.1496726 L52.9574257,60.1414065 L52.9574257,42.7000814 Z M71.4485149,42.7000814 L73.3679228,42.7083457 L73.3679228,53.1214367 L83.128793,42.7484869 L85.604517,42.7585222 L78.3211387,50.3522864 L85.919802,60.1998592 L83.5159748,60.188053 L76.984566,51.7159055 L73.3679228,55.4626112 L73.3679228,60.1461409 L71.4485149,60.1396474 L71.4485149,42.7000814 Z M96.96059,60.1998592 C95.5859473,60.1928943 94.3310719,59.9660151 93.1923887,59.5157116 C92.0554931,59.065408 90.9716287,58.3778602 89.939604,57.4490373 L91.1438315,56.0457257 C92.0441718,56.8582298 92.9510665,57.4657365 93.8680908,57.867094 C94.7833276,58.2672998 95.8391866,58.4694181 97.0350721,58.4746006 C98.1969937,58.4792073 99.1259352,58.2114437 99.8201089,57.6713098 C100.51607,57.1311759 100.864051,56.4407489 100.864051,55.5983013 L100.864051,55.5493553 C100.864051,55.1606662 100.799698,54.8082547 100.668014,54.4915451 C100.536329,54.1748355 100.308116,53.885766 99.9774152,53.6266399 C99.6496937,53.3652105 99.1950546,53.1302695 98.6140938,52.9166345 C98.0283661,52.7024236 97.2883114,52.4968503 96.3832043,52.2993386 C95.4018274,52.0839761 94.5437929,51.8375184 93.8138678,51.5599656 C93.082751,51.2806853 92.481531,50.9478522 92.0066328,50.556284 C91.5323304,50.1658674 91.1760078,49.7103813 90.9477944,49.1915534 C90.7177935,48.6727254 90.6033889,48.0634912 90.6033889,47.3667301 L90.6033889,47.3195115 C90.6033889,46.6549971 90.7416278,46.0394288 91.020489,45.4733823 C91.2987544,44.9084875 91.6908284,44.4184513 92.1990947,44.0090321 C92.7061692,43.5978854 93.303814,43.2759933 93.9896457,43.0427798 C94.6790525,42.810718 95.4304285,42.6967026 96.2497322,42.7000814 C97.5093745,42.7047643 98.609327,42.8826975 99.5501856,43.2351089 C100.492236,43.5880962 101.404493,44.1132584 102.28815,44.8152021 L101.157808,46.2927965 C100.357572,45.6397988 99.5501856,45.1681894 98.7410114,44.8722098 C97.9300497,44.5768061 97.0839324,44.4282405 96.200872,44.4253613 C95.0705307,44.4201788 94.1791283,44.6798807 93.5236853,45.2038912 C92.8700299,45.7279017 92.5423084,46.3791718 92.5423084,47.1559742 L92.5423084,47.2049202 C92.5423084,47.6097327 92.6078527,47.9707817 92.7383455,48.2874913 C92.8700299,48.6036251 93.1065852,48.8961497 93.4509907,49.1656408 C93.7936087,49.4328285 94.2685069,49.6781345 94.8744937,49.8998313 C95.4792888,50.1203763 96.2580743,50.3311322 97.2072749,50.5286439 C99.1211683,50.9576415 100.532754,51.5467214 101.442032,52.2958836 C102.348927,53.0438942 102.80297,54.0671542 102.80297,55.3633604 L102.80297,55.4123064 C102.80297,56.1401627 102.656389,56.7994946 102.365611,57.390302 C102.075429,57.9799578 101.675013,58.4843898 101.163171,58.9035982 C100.65133,59.3233824 100.038193,59.6446988 99.3183971,59.868123 C98.5974098,60.0921231 97.81207,60.2026835 96.96059,60.1998592 Z M108.430693,42.7000814 L110.351545,42.7101197 L110.351545,50.4585366 L120.177168,50.49869 L120.177168,42.7502731 L122.09802,42.7567685 L122.09802,60.1998592 L120.177168,60.1933638 L120.177168,52.342792 L110.351545,52.3026386 L110.351545,60.151439 L108.430693,60.1431721 L108.430693,42.7000814 Z M135.789756,58.6089703 C136.724706,58.6141427 137.585291,58.4309796 138.373783,58.0646533 C139.160571,57.6953917 139.834961,57.1893449 140.396385,56.548861 C140.958377,55.9066159 141.397753,55.1575257 141.717918,54.299242 C142.038083,53.4421325 142.19703,52.518685 142.19703,51.5265514 L142.19703,51.4784123 C142.19703,50.4862787 142.038083,49.5563736 141.717918,48.6875228 C141.397753,47.8204332 140.949862,47.0637112 140.372543,46.4161826 C139.79636,45.7686539 139.114023,45.2543882 138.325531,44.8716242 C137.538743,44.4888602 136.678157,44.2945429 135.743207,44.2909703 C134.806555,44.2874982 133.945402,44.4689002 133.15691,44.8369876 C132.370122,45.204488 131.695732,45.7105348 131.134308,46.3510188 C130.572884,46.9938509 130.133508,47.7423541 129.813343,48.6012248 C129.494881,49.4583343 129.333663,50.383543 129.333663,51.3733284 L129.333663,51.4220545 C129.333663,52.413601 129.494881,53.3440932 129.813343,54.2123569 C130.133508,55.0794465 130.580831,55.8385168 131.158717,56.4842842 C131.734333,57.1312258 132.416671,57.6454915 133.205162,58.0300167 C133.99195,58.4127807 134.853103,58.6059239 135.789756,58.6089703 Z M136.138724,60.1998592 C134.877064,60.1946376 133.732394,59.9557876 132.700126,59.484961 C131.667858,59.0129889 130.781828,58.3760556 130.04261,57.5758795 C129.301098,56.7751306 128.730483,55.8466515 128.329046,54.7881508 C127.927608,53.7325141 127.725743,52.6236087 127.725743,51.4625801 L127.725743,51.415612 C127.725743,50.2545834 127.930476,49.1445324 128.340515,48.0808768 C128.749982,47.0206578 129.325758,46.0916058 130.064976,45.2977304 C130.806488,44.5021365 131.695385,43.8692127 132.734535,43.3983861 C133.774831,42.9275596 134.924089,42.6950102 136.18575,42.7000814 C137.44569,42.7047475 138.591507,42.9435974 139.622054,43.4161424 C140.654322,43.886969 141.540352,44.5233295 142.281864,45.3240783 C143.021082,46.1242544 143.591697,47.0533064 143.993708,48.1100886 C144.395145,49.1668709 144.596438,50.2757764 144.596438,51.4368049 C144.613069,51.4528428 144.613069,51.4694535 144.596438,51.483773 C144.596438,52.6465199 144.391705,53.7571437 143.982238,54.819081 C143.572199,55.8793 142.998717,56.8077792 142.257204,57.603373 C141.517413,58.3972485 140.626795,59.0307451 139.588219,59.5015717 C138.547922,59.9723983 137.398091,60.2043749 136.138724,60.1998592 Z M156.840998,52.2453113 C157.532414,52.2489637 158.168705,52.1558273 158.741074,51.9713805 C159.317548,51.7863251 159.807814,51.5123943 160.218911,51.1635891 C160.629421,50.8153926 160.946687,50.4008441 161.164257,49.9193346 C161.382414,49.4396514 161.492079,48.8948335 161.492079,48.2976644 L161.492079,48.245922 C161.492079,46.9566211 161.076291,45.9783838 160.243542,45.3154714 C159.414311,44.647689 158.310038,44.3147109 156.937174,44.3080148 L152.648515,44.2909703 L152.648515,52.2282667 L156.840998,52.2453113 Z M150.236634,42.7000814 L156.668615,42.7273193 C157.632667,42.7302799 158.512708,42.8629168 159.306353,43.1234535 C160.100594,43.3869509 160.779244,43.7558472 161.345282,44.232511 C161.909532,44.7091748 162.341509,45.2900532 162.645978,45.9751464 C162.948063,46.657871 163.1,47.4335599 163.1,48.2998445 L163.1,48.3501754 C163.1,49.2999502 162.919464,50.1277464 162.559583,50.8341562 C162.199701,51.540566 161.713504,52.1350634 161.098608,52.61528 C160.485499,53.0966808 159.769312,53.4543266 158.951834,53.6923625 C158.132568,53.9309904 157.264444,54.0482319 156.34925,54.0452713 L152.176059,54.0263232 L152.176059,60.1998592 L150.236634,60.1915694 L150.236634,42.7000814 Z" id="Fill-14" fill="#005945"></path>
            </g>
        </g>
    </g>
</svg>